<svg xmlns="http://www.w3.org/2000/svg" width="800" height="400"><rect width="800" height="400" x="0" y="0" fill="#FFFFFF" id="backgorund"/><g id="viz"><clipPath id="serieClipPath"><rect x="-50" y="-15" width="800" height="400"/></clipPath><g transform="translate(0,0)"><g transform="translate(50,15)" clip-path="url(#serieClipPath)"><g id="axis"><g transform="translate(0,355)" fill="none" font-size="10" font-family="sans-serif" text-anchor="middle"><path class="domain" stroke="currentColor" d="M0,6V0H735V6"/><g class="tick" opacity="1" transform="translate(0,0)"><line stroke="currentColor" y2="6"/><text fill="currentColor" y="9" dy="0.71em">200</text></g><g class="tick" opacity="1" transform="translate(91.875,0)"><line stroke="currentColor" y2="6"/><text fill="currentColor" y="9" dy="0.71em">250</text></g><g class="tick" opacity="1" transform="translate(183.75,0)"><line stroke="currentColor" y2="6"/><text fill="currentColor" y="9" dy="0.71em">300</text></g><g class="tick" opacity="1" transform="translate(275.625,0)"><line stroke="currentColor" y2="6"/><text fill="currentColor" y="9" dy="0.71em">350</text></g><g class="tick" opacity="1" transform="translate(367.5,0)"><line stroke="currentColor" y2="6"/><text fill="currentColor" y="9" dy="0.71em">400</text></g><g class="tick" opacity="1" transform="translate(459.375,0)"><line stroke="currentColor" y2="6"/><text fill="currentColor" y="9" dy="0.71em">450</text></g><g class="tick" opacity="1" transform="translate(551.25,0)"><line stroke="currentColor" y2="6"/><text fill="currentColor" y="9" dy="0.71em">500</text></g><g class="tick" opacity="1" transform="translate(643.125,0)"><line stroke="currentColor" y2="6"/><text fill="currentColor" y="9" dy="0.71em">550</text></g><g class="tick" opacity="1" transform="translate(735,0)"><line stroke="currentColor" y2="6"/><text fill="currentColor" y="9" dy="0.71em">600</text></g><text x="735" dy="-5" text-anchor="end" style="font-family: Arial, sans-serif; font-size: 12px; fill: rgb(123, 123, 123); font-weight: bold;">time</text></g><g transform="translate(0,0)" fill="none" font-size="10" font-family="sans-serif" text-anchor="end"><path class="domain" stroke="currentColor" d="M0,355V0"/><g class="tick" opacity="1" transform="translate(0,355)"><line stroke="currentColor" x2="-6"/><text fill="currentColor" x="-9" dy="0.32em">10</text></g><g class="tick" opacity="1" transform="translate(0,322.7272727272727)"><line stroke="currentColor" x2="-6"/><text fill="currentColor" x="-9" dy="0.32em">20</text></g><g class="tick" opacity="1" transform="translate(0,290.45454545454544)"><line stroke="currentColor" x2="-6"/><text fill="currentColor" x="-9" dy="0.32em">30</text></g><g class="tick" opacity="1" transform="translate(0,258.1818181818182)"><line stroke="currentColor" x2="-6"/><text fill="currentColor" x="-9" dy="0.32em">40</text></g><g class="tick" opacity="1" transform="translate(0,225.9090909090909)"><line stroke="currentColor" x2="-6"/><text fill="currentColor" x="-9" dy="0.32em">50</text></g><g class="tick" opacity="1" transform="translate(0,193.63636363636363)"><line stroke="currentColor" x2="-6"/><text fill="currentColor" x="-9" dy="0.32em">60</text></g><g class="tick" opacity="1" transform="translate(0,161.36363636363637)"><line stroke="currentColor" x2="-6"/><text fill="currentColor" x="-9" dy="0.32em">70</text></g><g class="tick" opacity="1" transform="translate(0,129.0909090909091)"><line stroke="currentColor" x2="-6"/><text fill="currentColor" x="-9" dy="0.32em">80</text></g><g class="tick" opacity="1" transform="translate(0,96.81818181818181)"><line stroke="currentColor" x2="-6"/><text fill="currentColor" x="-9" dy="0.32em">90</text></g><g class="tick" opacity="1" transform="translate(0,64.54545454545453)"><line stroke="currentColor" x2="-6"/><text fill="currentColor" x="-9" dy="0.32em">100</text></g><g class="tick" opacity="1" transform="translate(0,32.27272727272728)"><line stroke="currentColor" x2="-6"/><text fill="currentColor" x="-9" dy="0.32em">110</text></g><g class="tick" opacity="1" transform="translate(0,0)"><line stroke="currentColor" x2="-6"/><text fill="currentColor" x="-9" dy="0.32em">120</text></g><text x="4" text-anchor="start" dominant-baseline="hanging" style="font-family: Arial, sans-serif; font-size: 12px; fill: rgb(123, 123, 123); font-weight: bold;">force</text></g></g><g id="viz"><g><path d="M25.725,342.09090909090907C28.481250000000003,342.09090909090907,28.481250000000003,338.8636363636364,31.2375,338.8636363636364C33.075,338.8636363636364,33.075,48.40909090909091,34.9125,48.40909090909091C36.75,48.40909090909091,36.75,287.22727272727275,38.5875,287.22727272727275C40.425,287.22727272727275,40.425,196.86363636363637,42.2625,196.86363636363637C44.1,196.86363636363637,44.1,345.3181818181818,45.9375,345.3181818181818C47.775000000000006,345.3181818181818,47.775000000000006,345.3181818181818,49.612500000000004,345.3181818181818C51.45,345.3181818181818,51.45,303.3636363636364,53.287499999999994,303.3636363636364C147,303.3636363636364,147,306.5909090909091,240.7125,306.5909090909091C242.55,306.5909090909091,242.55,300.1363636363636,244.38750000000002,300.1363636363636C246.22500000000002,300.1363636363636,246.22500000000002,338.8636363636364,248.06250000000003,338.8636363636364C249.90000000000003,338.8636363636364,249.90000000000003,80.68181818181819,251.7375,80.68181818181819C253.575,80.68181818181819,253.575,335.6363636363636,255.4125,335.6363636363636C349.125,335.6363636363636,349.125,335.6363636363636,442.83750000000003,335.6363636363636C444.67500000000007,335.6363636363636,444.67500000000007,316.27272727272725,446.51250000000005,316.27272727272725C448.35,316.27272727272725,448.35,300.1363636363636,450.18750000000006,300.1363636363636C452.02500000000003,300.1363636363636,452.02500000000003,284,453.8625,284C455.70000000000005,284,455.70000000000005,351.7727272727273,457.5375,351.7727272727273C551.25,351.7727272727273,551.25,303.3636363636364,644.9625,303.3636363636364C648.6375,303.3636363636364,648.6375,319.5,652.3125,319.5C654.15,319.5,654.15,303.3636363636364,655.9875,303.3636363636364C657.825,303.3636363636364,657.825,335.6363636363636,659.6625,335.6363636363636C661.5,335.6363636363636,661.5,329.1818181818182,663.3375,329.1818181818182C665.175,329.1818181818182,665.175,22.59090909090908,667.0124999999999,22.59090909090908C668.8499999999999,22.59090909090908,668.8499999999999,345.3181818181818,670.6875,345.3181818181818" stroke="#002ce3" fill="none"/><g><circle class="dot" cx="25.725" cy="342.09090909090907" r="2" fill="#002ce3"/><circle class="dot" cx="31.2375" cy="338.8636363636364" r="2" fill="#002ce3"/><circle class="dot" cx="34.9125" cy="48.40909090909091" r="2" fill="#002ce3"/><circle class="dot" cx="38.5875" cy="287.22727272727275" r="2" fill="#002ce3"/><circle class="dot" cx="42.2625" cy="196.86363636363637" r="2" fill="#002ce3"/><circle class="dot" cx="45.9375" cy="345.3181818181818" r="2" fill="#002ce3"/><circle class="dot" cx="49.612500000000004" cy="345.3181818181818" r="2" fill="#002ce3"/><circle class="dot" cx="53.287499999999994" cy="303.3636363636364" r="2" fill="#002ce3"/><circle class="dot" cx="240.7125" cy="306.5909090909091" r="2" fill="#002ce3"/><circle class="dot" cx="244.38750000000002" cy="300.1363636363636" r="2" fill="#002ce3"/><circle class="dot" cx="248.06250000000003" cy="338.8636363636364" r="2" fill="#002ce3"/><circle class="dot" cx="251.7375" cy="80.68181818181819" r="2" fill="#002ce3"/><circle class="dot" cx="255.4125" cy="335.6363636363636" r="2" fill="#002ce3"/><circle class="dot" cx="442.83750000000003" cy="335.6363636363636" r="2" fill="#002ce3"/><circle class="dot" cx="446.51250000000005" cy="316.27272727272725" r="2" fill="#002ce3"/><circle class="dot" cx="450.18750000000006" cy="300.1363636363636" r="2" fill="#002ce3"/><circle class="dot" cx="453.8625" cy="284" r="2" fill="#002ce3"/><circle class="dot" cx="457.5375" cy="351.7727272727273" r="2" fill="#002ce3"/><circle class="dot" cx="644.9625" cy="303.3636363636364" r="2" fill="#002ce3"/><circle class="dot" cx="652.3125" cy="319.5" r="2" fill="#002ce3"/><circle class="dot" cx="655.9875" cy="303.3636363636364" r="2" fill="#002ce3"/><circle class="dot" cx="659.6625" cy="335.6363636363636" r="2" fill="#002ce3"/><circle class="dot" cx="663.3375" cy="329.1818181818182" r="2" fill="#002ce3"/><circle class="dot" cx="667.0124999999999" cy="22.59090909090908" r="2" fill="#002ce3"/><circle class="dot" cx="670.6875" cy="345.3181818181818" r="2" fill="#002ce3"/></g><text font-family="sans-serif" font-size="10" class="labels" x="667.0124999999999" y="22.59090909090908" dx="0" dy="-4" text-anchor="middle"/></g></g></g><text y="4" x="4" style="font-family: Arial, sans-serif; font-size: 12px; fill: black; font-weight: bold; dominant-baseline: hanging;"/></g><g id="grid"><rect x="0" y="0" width="800" height="400" fill="none" stroke="#ccc"/></g></g></svg>